<?xml version="1.0" standalone="no"?>
<!DOCTYPE svg PUBLIC "-//W3C//DTD SVG 20010904//EN"
 "http://www.w3.org/TR/2001/REC-SVG-20010904/DTD/svg10.dtd">
<svg version="1.0" xmlns="http://www.w3.org/2000/svg"
 width="500.000000pt" height="500.000000pt" viewBox="0 0 500.000000 500.000000"
 preserveAspectRatio="xMidYMid meet">

<g transform="translate(0.000000,500.000000) scale(0.100000,-0.100000)"
fill="#000000" stroke="none">
<path d="M1565 4005 c-163 -79 -251 -207 -275 -399 -20 -165 18 -345 101 -472
43 -67 91 -111 178 -164 49 -30 61 -33 123 -32 76 2 417 70 516 103 53 18 70
29 102 70 56 71 98 163 111 244 11 71 4 211 -11 220 -4 3 -6 14 -3 25 3 12 0
20 -7 20 -7 0 -10 7 -6 15 3 8 1 15 -4 15 -8 0 -26 56 -22 71 0 3 -6 6 -14 6
-7 0 -14 -3 -14 -6 0 -13 -227 6 -276 23 -68 22 -86 43 -87 104 -2 39 4 59 30
100 18 29 29 52 25 52 -4 1 -33 3 -64 6 -61 7 -208 -20 -208 -37 0 -5 -5 -9
-12 -9 -6 0 -22 -10 -34 -21 -13 -12 -34 -27 -46 -33 -13 -6 -25 -22 -26 -36
-2 -13 -13 -32 -23 -41 -20 -17 -52 -96 -44 -109 4 -7 -15 -71 -25 -80 -3 -3
-12 -30 -19 -60 -8 -30 -17 -59 -21 -65 -4 -5 -13 -57 -21 -115 -13 -105 -31
-162 -44 -141 -3 6 -11 9 -16 6 -18 -12 -59 49 -79 115 -24 81 -27 229 -6 308
8 30 30 79 48 109 41 68 158 187 209 214 22 11 39 22 39 24 0 7 1 8 -75 -30z"/>
<path d="M2737 3934 c-16 -9 -27 -18 -24 -20 3 -3 20 4 38 15 39 24 28 28 -14
5z"/>
<path d="M2645 3679 c24 -11 60 -18 90 -18 l50 1 -55 9 c-30 4 -68 12 -83 18
-45 17 -46 11 -2 -10z"/>
<path d="M3228 3351 c-75 -38 -163 -106 -269 -208 -86 -83 -107 -97 -95 -67
24 62 -110 -103 -159 -197 l-35 -66 -92 -7 c-51 -4 -147 -14 -213 -22 -66 -8
-205 -21 -310 -29 -270 -21 -317 -25 -340 -30 -11 -2 -54 -7 -95 -10 -41 -3
-147 -15 -235 -25 -123 -15 -139 -18 -70 -15 50 3 128 9 175 14 84 10 347 33
405 36 17 1 56 5 88 9 41 6 61 5 72 -4 12 -10 15 -9 15 5 0 15 9 17 70 13 38
-2 71 -1 72 3 5 11 118 16 125 6 3 -5 8 -5 12 2 4 6 35 14 69 17 49 6 62 4 62
-7 0 -11 2 -11 10 1 6 10 34 17 87 21 43 3 79 5 81 4 1 -1 -7 -22 -18 -46 -21
-46 -27 -119 -10 -119 6 0 10 5 10 10 0 6 5 10 11 10 7 0 9 -10 4 -27 -7 -28
14 -237 23 -228 3 2 17 -4 32 -15 63 -45 156 -15 278 87 101 84 211 205 289
316 39 55 61 77 76 77 17 0 19 2 8 9 -11 7 -7 24 22 92 43 100 57 155 57 229
0 69 -27 129 -72 164 -44 33 -69 33 -140 -3z"/>
<path d="M3833 2913 c15 -2 37 -2 50 0 12 2 0 4 -28 4 -27 0 -38 -2 -22 -4z"/>
<path d="M3733 2903 c15 -2 37 -2 50 0 12 2 0 4 -28 4 -27 0 -38 -2 -22 -4z"/>
<path d="M3560 2890 l-45 -7 45 -1 c25 0 68 3 95 8 l50 7 -50 0 c-27 0 -70 -3
-95 -7z"/>
<path d="M3430 2879 l-45 -6 50 -1 c28 -1 57 3 65 8 16 10 13 10 -70 -1z"/>
<path d="M3886 2775 c-3 -9 -6 -72 -6 -139 0 -67 -4 -126 -9 -131 -5 -6 -11
-53 -14 -105 -4 -71 -10 -97 -22 -106 -12 -9 -13 -13 -3 -17 7 -3 -2 -4 -21
-3 -19 2 -47 -4 -62 -13 -26 -15 -26 -16 -8 -32 11 -9 19 -32 21 -57 2 -23 8
-42 13 -42 7 0 9 -15 7 -35 -3 -24 0 -36 11 -41 8 -3 13 -13 10 -23 -2 -9 5
-25 16 -35 12 -11 21 -25 21 -33 0 -8 4 -11 10 -8 5 3 15 -5 22 -20 17 -38 50
-42 84 -10 16 15 29 30 29 33 2 23 18 52 29 52 9 0 13 14 13 39 0 25 14 65 39
115 38 74 38 76 19 91 -12 9 -31 12 -47 9 -24 -5 -27 -2 -32 28 -3 18 -7 73
-9 122 -3 49 -10 92 -16 95 -6 4 -11 59 -13 141 l-3 135 -36 3 c-26 2 -38 -1
-43 -13z"/>
<path d="M1209 2676 c-2 -3 -35 -6 -72 -7 -37 -1 -70 -6 -73 -10 -4 -7 147 0
155 7 2 2 2 6 -1 9 -2 3 -7 3 -9 1z"/>
<path d="M1043 2524 c-10 -4 -13 -41 -13 -136 0 -102 -3 -133 -15 -144 -11
-12 -15 -40 -15 -115 0 -54 -4 -99 -8 -99 -4 0 -7 28 -6 63 1 39 -2 55 -7 42
-4 -11 -8 -30 -8 -43 -1 -13 -5 -21 -10 -18 -4 3 -6 17 -3 31 l4 26 -107 -7
c-82 -5 -109 -4 -115 6 -5 8 -13 9 -21 4 -8 -5 -52 -10 -99 -12 -69 -3 -83 -1
-73 9 19 19 16 29 -7 29 -11 0 -20 -4 -20 -10 0 -5 -5 -10 -11 -10 -5 0 -7 5
-4 10 3 6 -1 10 -10 10 -9 0 -16 -7 -14 -17 3 -38 -1 -43 -41 -43 -22 0 -40
-4 -40 -10 0 -5 -18 -10 -40 -10 -39 0 -44 -5 -41 -40 1 -10 -5 -7 -19 9 -12
14 -20 18 -20 10 0 -8 -13 -20 -29 -27 -20 -9 -30 -22 -33 -42 -2 -16 -1 -27
4 -24 4 3 8 -2 8 -10 0 -9 28 -37 61 -63 135 -105 141 -112 135 -157 -3 -23
-5 -42 -5 -42 -1 -1 -8 -4 -16 -8 -15 -5 -70 10 -140 38 -34 14 -37 14 -21 1
23 -17 119 -55 142 -55 8 0 12 -4 9 -10 -3 -6 1 -7 9 -4 9 3 16 1 16 -6 0 -7
8 -9 23 -5 20 5 20 5 -3 -9 -14 -9 -32 -16 -40 -16 -19 -1 -84 -77 -95 -109
-11 -37 -58 -113 -75 -122 -48 -25 -79 -36 -82 -28 -2 6 -8 -4 -15 -20 -26
-70 79 -196 221 -264 470 -229 1857 -338 3066 -241 766 61 1248 185 1392 359
38 45 68 110 69 147 1 47 -48 224 -79 285 l-26 53 -48 -2 c-26 -1 -48 -5 -48
-8 0 -3 -10 -5 -22 -6 -13 0 -39 -3 -58 -7 -20 -4 -11 2 20 12 63 21 187 78
195 90 2 5 -15 1 -39 -7 -40 -15 -46 -15 -69 1 -43 28 -48 47 -23 102 11 28
28 61 36 75 8 14 13 28 12 33 -1 4 3 7 8 7 6 0 10 5 10 10 0 19 -45 10 -130
-26 -116 -48 -264 -97 -390 -129 -58 -14 -123 -31 -145 -37 -39 -10 -181 -34
-260 -44 -22 -2 -60 -9 -85 -14 -25 -6 -135 -19 -245 -31 -110 -11 -213 -22
-230 -24 -246 -34 -335 -39 -670 -39 -262 0 -361 4 -395 14 l-45 13 35 9 c19
5 200 8 402 8 464 -1 686 16 889 70 89 23 98 31 68 61 l-22 22 29 24 c16 12
32 23 37 23 4 0 7 5 7 10 0 6 -7 10 -15 10 -29 0 -64 22 -58 38 4 9 2 13 -4 9
-6 -4 -14 0 -17 9 -9 25 -7 64 4 64 24 0 7 32 -26 47 -28 14 -37 15 -43 4 -8
-13 -81 -6 -81 8 0 7 -244 6 -342 -2 -26 -2 -45 0 -43 4 3 3 -21 5 -51 2 -31
-2 -68 0 -83 5 -14 6 -39 13 -56 16 -23 5 -26 4 -15 -4 11 -8 5 -9 -25 -5 -44
7 83 -38 382 -134 197 -64 252 -91 223 -111 -29 -21 -127 0 -390 84 -146 46
-326 103 -400 126 -74 23 -139 46 -145 51 -6 6 1 19 18 36 25 26 29 27 69 15
24 -7 51 -14 61 -17 9 -2 21 -6 26 -10 5 -3 12 -1 16 5 3 5 -2 10 -12 11 -10
0 -13 3 -5 6 6 2 12 8 12 13 0 14 -31 20 -48 10 -14 -9 -12 -10 8 -4 19 5 22
4 13 -6 -7 -8 -22 -10 -44 -5 l-33 7 30 13 c16 8 23 14 16 14 -7 1 -10 6 -6
13 4 7 3 8 -5 4 -6 -4 -8 -12 -5 -18 5 -8 1 -9 -10 -5 -9 4 -33 0 -53 -8 -45
-19 -52 -19 -27 1 18 15 18 15 -8 11 -17 -2 -28 0 -28 7 0 7 -3 7 -8 1 -4 -5
-23 -11 -42 -13 -26 -2 -41 3 -55 17 -26 30 -35 26 -35 -14 0 -19 -2 -35 -4
-35 -3 0 -120 36 -260 80 -140 44 -260 80 -265 80 -6 0 -11 -4 -11 -10 0 -5 8
-10 18 -10 9 0 44 -9 77 -19 69 -23 209 -72 212 -74 1 -1 -25 -2 -57 -2 -32 0
-56 3 -54 7 3 5 17 6 32 3 22 -4 23 -4 7 4 -11 5 -33 7 -50 4 -23 -4 -27 -2
-15 6 8 6 10 11 5 11 -6 0 -15 -4 -21 -10 -5 -5 -25 -10 -44 -10 -59 -2 -225
20 -228 30 -5 13 -82 13 -82 -1 0 -7 -36 -9 -105 -7 -103 2 -105 3 -83 20 19
14 20 18 6 18 -9 0 -20 -5 -23 -11 -4 -5 -21 -8 -38 -5 -22 4 -26 3 -12 -2 16
-8 14 -10 -14 -15 -19 -4 -45 -8 -60 -8 -18 -1 -13 -4 14 -8 22 -3 42 -3 43 2
2 4 15 7 29 7 22 0 24 -2 13 -15 -10 -12 -24 -14 -63 -9 -40 6 -49 4 -45 -7 3
-8 13 -13 22 -11 14 3 17 -3 16 -25 -3 -48 -1 -52 33 -56 28 -3 27 -4 -10 -5
-23 -1 -45 -7 -48 -12 -4 -6 -10 -8 -15 -5 -5 3 -13 -3 -19 -12 -8 -13 -10 2
-10 62 0 54 3 73 9 60 8 -18 9 -18 9 -2 1 10 -6 20 -14 23 -8 4 -15 12 -15 19
0 7 -6 16 -12 19 -10 5 -10 7 0 12 6 3 9 11 5 17 -4 7 -10 62 -13 122 l-5 110
-30 2 c-16 1 -36 0 -42 -3z m317 -304 c0 -5 -7 -10 -15 -10 -8 0 -15 5 -15 10
0 6 7 10 15 10 8 0 15 -4 15 -10z m527 -16 c-3 -3 -12 -4 -19 -1 -8 3 -5 6 6
6 11 1 17 -2 13 -5z m220 -20 c-3 -3 -12 -4 -19 -1 -8 3 -5 6 6 6 11 1 17 -2
13 -5z m60 -20 c-3 -3 -12 -4 -19 -1 -8 3 -5 6 6 6 11 1 17 -2 13 -5z m163
-79 c19 -14 29 -25 23 -25 -6 0 -16 7 -23 15 -7 8 -18 15 -26 15 -7 0 -16 5
-19 10 -11 18 10 11 45 -15z m-31 -11 c13 -12 -8 -10 -29 2 l-25 15 25 -7 c14
-3 27 -8 29 -10z m131 5 c13 -9 12 -10 -2 -5 -11 3 -18 0 -18 -7 0 -8 -4 -6
-10 3 -6 10 -10 11 -10 3 0 -7 -5 -13 -11 -13 -8 0 -8 5 1 15 15 18 29 19 50
4z m420 -4 c47 -18 27 -18 -30 -1 -25 8 -36 15 -25 15 11 0 36 -7 55 -14z
m-390 -20 c-7 -9 -15 -13 -17 -11 -7 7 7 26 19 26 6 0 6 -6 -2 -15z m80 -9 c0
-1 -16 -2 -36 -2 -21 0 -32 2 -25 4 6 2 9 8 6 12 -3 5 8 4 25 -1 16 -6 30 -12
30 -13z m-1560 -29 c11 -18 9 -19 -12 -14 -13 4 -30 2 -38 -3 -22 -14 -33 0
-15 20 21 23 49 22 65 -3z m229 14 c11 -7 10 -10 -6 -15 -23 -7 -53 2 -53 15
0 11 41 11 59 0z m1431 -28 c14 -14 12 -14 -15 0 -16 8 -37 17 -45 21 -8 3 -1
4 15 0 17 -3 37 -12 45 -21z m700 -187 c0 -2 -9 -6 -20 -9 -11 -3 -20 -1 -20
4 0 5 9 9 20 9 11 0 20 -2 20 -4z m445 -181 c-77 -29 -287 -50 -387 -39 -32 4
-56 10 -53 14 2 4 53 12 112 19 145 17 134 16 258 19 108 2 109 2 70 -13z
m742 -1 c-3 -3 -12 -4 -19 -1 -8 3 -5 6 6 6 11 1 17 -2 13 -5z m-49 -10 c-10
-9 -108 -33 -248 -59 -322 -61 -505 -85 -830 -106 -248 -17 -1526 -18 -1625
-2 -69 12 -69 12 45 7 713 -28 1449 -7 2015 57 193 22 498 71 580 93 57 16 71
18 63 10z m-2955 -141 c-7 -2 -21 -2 -30 0 -10 3 -4 5 12 5 17 0 24 -2 18 -5z
m140 -10 c-13 -2 -33 -2 -45 0 -13 2 -3 4 22 4 25 0 35 -2 23 -4z"/>
<path d="M2118 2463 c-59 -18 -69 -47 -10 -31 35 9 71 33 61 41 -2 2 -25 -3
-51 -10z"/>
<path d="M1950 2439 c0 -24 82 -40 95 -18 4 6 5 12 4 13 -10 8 -99 13 -99 5z"/>
<path d="M1381 2374 c0 -11 3 -14 6 -6 3 7 2 16 -1 19 -3 4 -6 -2 -5 -13z"/>
<path d="M1600 2354 c0 -8 5 -12 10 -9 6 3 10 10 10 16 0 5 -4 9 -10 9 -5 0
-10 -7 -10 -16z"/>
<path d="M1650 2340 c0 -5 12 -10 28 -9 24 0 25 1 7 9 -27 12 -35 12 -35 0z"/>
<path d="M1273 2323 c9 -2 23 -2 30 0 6 3 -1 5 -18 5 -16 0 -22 -2 -12 -5z"/>
<path d="M1420 2326 c0 -2 7 -7 16 -10 8 -3 12 -2 9 4 -6 10 -25 14 -25 6z"/>
<path d="M953 2313 c9 -2 25 -2 35 0 9 3 1 5 -18 5 -19 0 -27 -2 -17 -5z"/>
<path d="M868 2303 c6 -2 10 -9 7 -14 -4 -5 1 -6 10 -2 13 5 14 7 3 14 -7 5
-17 8 -23 8 -5 0 -4 -3 3 -6z"/>
<path d="M938 2293 c7 -3 16 -2 19 1 4 3 -2 6 -13 5 -11 0 -14 -3 -6 -6z"/>
<path d="M984 2256 c-6 -7 -14 -18 -17 -26 -3 -10 -6 -7 -6 8 l-1 23 -142 -5
c-167 -6 -148 -4 -148 -16 0 -5 17 -10 38 -10 25 0 32 -3 23 -9 -8 -5 39 -8
116 -7 127 1 130 2 141 25 13 28 12 34 -4 17z"/>
<path d="M1190 2261 c0 -4 11 -6 25 -3 14 2 25 6 25 8 0 2 -11 4 -25 4 -14 0
-25 -4 -25 -9z"/>
<path d="M2218 2253 c6 -2 18 -2 25 0 6 3 1 5 -13 5 -14 0 -19 -2 -12 -5z"/>
<path d="M600 2240 l-25 -8 24 -1 c19 -1 21 -4 12 -15 -10 -12 -8 -13 9 -9 15
4 18 9 10 18 -8 9 -7 15 2 18 20 8 -4 6 -32 -3z"/>
<path d="M530 2208 c0 -4 6 -8 14 -8 8 0 17 4 20 8 2 4 -4 8 -15 8 -10 0 -19
-4 -19 -8z"/>
<path d="M640 2170 c0 -13 6 -17 20 -13 11 3 20 0 20 -6 0 -6 9 -11 20 -11 38
0 12 34 -33 42 -21 4 -27 1 -27 -12z"/>
<path d="M370 2146 c0 -3 9 -10 20 -16 11 -6 20 -8 20 -6 0 3 -9 10 -20 16
-11 6 -20 8 -20 6z"/>
<path d="M2670 2110 c8 -5 20 -10 25 -10 6 0 3 5 -5 10 -8 5 -19 10 -25 10 -5
0 -3 -5 5 -10z"/>
<path d="M3280 2110 c0 -5 18 -10 40 -10 22 0 40 5 40 10 0 6 -18 10 -40 10
-22 0 -40 -4 -40 -10z"/>
<path d="M4844 1788 l-19 -23 23 19 c12 11 22 21 22 23 0 8 -8 2 -26 -19z"/>
</g>
</svg>
